<svg width="20" height="20" viewBox="0 0 20 20" fill="none" xmlns="http://www.w3.org/2000/svg">
<g clip-path="url(#clip0_240_275)">
<path d="M14.2275 17.7674C12.6333 18.7557 11.5067 19.9999 10 19.9999C8.49333 19.9999 7.82083 19.0657 5.7375 19.0657C3.65417 19.0657 2.75667 19.9849 1.31417 19.9849C0.0966666 19.9849 -2.5 16.2499 -2.5 12.1541C-2.5 8.2599 -0.1925 6.17656 1.955 6.17656C3.26917 6.17656 4.32667 6.8524 5.44833 6.8524C6.47417 6.8524 7.37167 6.17656 9.00667 6.17656C10.4808 6.17656 12.885 7.09573 13.6217 9.1049C10.7375 10.4866 11.1858 14.5099 13.7817 15.6366C13.3008 17.1674 12.5958 18.4291 11.73 19.4132L11.7308 19.4349V19.4341L14.2275 17.7674ZM10 4.97573C9.93917 3.17406 11.1858 1.45073 12.7567 0.539063C12.9492 2.45323 11.5383 4.22156 10 4.97573Z" fill="#0F172A"/>
</g>
<defs>
<clipPath id="clip0_240_275">
<rect width="20" height="20" fill="white"/>
</clipPath>
</defs>
</svg>
